<?xml version="1.0" standalone="no"?>
<!DOCTYPE svg PUBLIC "-//W3C//DTD SVG 20010904//EN"
 "http://www.w3.org/TR/2001/REC-SVG-20010904/DTD/svg10.dtd">
<svg version="1.0" xmlns="http://www.w3.org/2000/svg"
 width="1200.000000pt" height="1200.000000pt" viewBox="0 0 1200.000000 1200.000000"
 preserveAspectRatio="xMidYMid meet">
<metadata>
Created by potrace 1.14, written by Peter Selinger 2001-2017
</metadata>
<g transform="translate(0.000000,1200.000000) scale(0.100000,-0.100000)"
fill="#000000" stroke="none">
<path d="M1789 11996 c-2 -2 -35 -6 -74 -9 -263 -23 -607 -145 -835 -296 -47
-31 -87 -58 -90 -62 -3 -3 -23 -18 -45 -35 -58 -42 -99 -79 -189 -170 -78 -77
-107 -110 -151 -170 -11 -15 -25 -32 -30 -38 -6 -6 -26 -36 -45 -66 -19 -30
-40 -61 -46 -67 -7 -7 -25 -40 -41 -73 -15 -33 -32 -60 -36 -60 -5 0 -5 -4 -2
-10 3 -5 1 -10 -5 -10 -6 0 -8 -4 -5 -10 3 -5 1 -10 -4 -10 -6 0 -10 -3 -9 -7
1 -8 -9 -36 -37 -98 -14 -32 -27 -65 -30 -77 -2 -5 -4 -10 -5 -13 -1 -3 -4 -9
-5 -15 -1 -5 -3 -11 -5 -12 -1 -2 -3 -10 -5 -18 -1 -8 -10 -36 -18 -62 -9 -26
-19 -57 -21 -70 -6 -26 -13 -61 -22 -101 -3 -16 -7 -40 -9 -53 -2 -13 -7 -52
-11 -87 -11 -75 -12 -8482 -2 -8582 17 -159 77 -397 133 -522 70 -157 192
-376 224 -403 3 -3 33 -39 66 -80 114 -144 263 -280 419 -382 39 -26 76 -52
83 -57 7 -6 16 -11 21 -11 5 0 25 -11 45 -24 19 -13 38 -22 41 -18 3 3 6 0 6
-7 0 -7 5 -9 10 -6 6 3 10 1 10 -5 0 -6 4 -8 10 -5 5 3 10 1 10 -6 0 -7 3 -10
6 -6 3 3 22 -3 42 -13 35 -18 188 -77 222 -85 8 -2 27 -8 43 -14 15 -6 27 -8
27 -6 0 2 11 0 25 -5 26 -10 54 -16 115 -26 19 -3 42 -7 50 -9 8 -2 47 -8 85
-12 88 -10 8486 -11 8575 -1 155 18 245 37 405 88 126 40 322 134 434 208 47
31 88 59 91 62 3 3 23 19 45 36 78 57 220 193 288 275 15 19 37 45 49 59 35
42 165 244 172 267 4 13 12 23 17 23 5 0 9 9 9 20 0 11 5 20 10 20 6 0 10 7
10 16 0 9 10 33 22 53 13 20 21 36 20 36 -3 0 11 41 25 75 3 8 7 18 8 23 2 4
3 8 5 10 1 1 3 9 5 17 2 8 16 53 30 100 14 47 28 99 30 115 3 17 8 41 10 55
11 52 13 67 21 130 5 36 9 1975 9 4310 0 4563 3 4296 -51 4520 -35 143 -75
254 -140 388 -47 97 -153 276 -174 292 -3 3 -19 23 -36 45 -60 82 -215 243
-283 295 -18 14 -47 37 -64 52 -18 15 -59 44 -92 65 -33 20 -61 40 -63 45 -2
4 -10 8 -18 8 -8 0 -14 5 -14 10 0 6 -6 10 -14 10 -7 0 -29 11 -49 24 -19 13
-38 22 -41 18 -3 -3 -6 0 -6 7 0 7 -4 9 -10 6 -5 -3 -10 -1 -10 5 0 6 -4 8
-10 5 -5 -3 -10 -1 -10 6 0 7 -3 10 -6 6 -4 -3 -21 1 -38 10 -17 10 -33 18
-36 18 -3 1 -18 7 -35 14 -36 14 -54 20 -60 21 -3 0 -25 9 -50 20 -25 11 -45
17 -45 15 0 -3 -16 1 -35 9 -19 8 -35 13 -35 11 0 -3 -11 0 -26 5 -14 6 -37
12 -52 15 -15 3 -38 7 -52 10 -14 3 -45 8 -70 11 -25 3 -56 8 -70 12 -26 7
-8503 15 -8511 8z"/>
</g>
</svg>
